<svg width="287.455" height="277.491" xmlns="http://www.w3.org/2000/svg" xmlns:xlink="http://www.w3.org/1999/xlink" id="svg1" overflow="hidden"><defs id="defs1"></defs><g id="g1" transform="translate(-2204.24 -1994.71)"><path d="M2297.43 1994.73 2297.43 1994.73C2305.63 2011.72 2309.35 2044.87 2309.35 2081.07 2309.35 2119.51 2305.12 2161.02 2297.42 2190.27 2286.04 2232.76 2259.56 2244.19 2243.48 2239.88 2230.75 2236.47 2225.88 2224.88 2229.97 2211.56 2234.61 2197.11 2248.76 2183.66 2266.77 2188.49 2272.53 2190.03 2274.9 2195.56 2272.73 2202.69 2271.64 2206.78 2268.46 2210.04 2264.61 2209.01 2263.17 2208.62 2263.01 2207.29 2263.33 2206.09 2263.52 2205.37 2265.55 2203.6 2265.74 2202.88 2266.25 2200.96 2265.07 2199.61 2263.15 2199.1 2260.99 2198.52 2258.45 2199.38 2257.06 2202.61 2255.99 2205.67 2257.29 2210.39 2263.78 2212.13 2272.18 2214.38 2278.97 2208.22 2282.01 2199.78 2286.44 2187.07 2282.65 2168.57 2262.49 2163.16 2234.64 2155.7 2212.1 2173.59 2205.93 2192.77 2199.5 2212.92 2210.82 2238.85 2249.23 2249.14 2283.07 2258.21 2326.75 2252.67 2339.31 2200.98L2343.69 2184.66C2352.11 2184.19 2360.45 2184.02 2368.81 2184.19 2370.93 2184.37 2373.12 2184.47 2375.38 2184.47 2393.35 2184.47 2408.15 2178.02 2417.89 2167.8 2419.45 2166.53 2420.75 2164.93 2421.64 2163.09 2422.2 2161.94 2422.85 2159.75 2422.97 2158.56 2423.41 2154.71 2422.54 2151.71 2419.85 2147.67 2418.23 2145.25 2417.28 2143.05 2415.86 2138.46 2414.76 2134.91 2414.27 2133.59 2413.51 2132.27 2411.98 2129.56 2409.9 2127.99 2406.48 2126.98L2406.48 2126.98C2403.86 2126.21 2401.67 2126.16 2399.54 2126.81 2398.52 2127.12 2396.78 2128.07 2395.55 2128.99 2394.93 2129.45 2393.56 2130.56 2392.5 2131.46 2388.61 2134.74 2386.79 2135.95 2383.58 2137.36 2380.82 2138.57 2379.45 2139.46 2377.94 2141.08 2375.35 2143.84 2373.92 2147.73 2374.11 2151.46 2374.18 2152.76 2374.55 2154.58 2374.99 2155.76 2375.36 2156.75 2375.87 2157.71 2376.47 2158.61 2357.52 2155.21 2348.79 2140.74 2348.79 2125.33 2348.79 2099.48 2374.39 2079.84 2401.73 2079.84 2433.29 2079.84 2454.41 2098.73 2454.41 2127.31 2454.41 2162.35 2423.85 2202.86 2360.72 2202.86 2360.72 2233.43 2359.48 2244.36 2348.79 2271.7 2370.41 2267.72 2391.04 2267.97 2413.16 2272.2 2404.71 2250.08 2405.95 2224.73 2406.45 2207.58 2463.11 2198.88 2491.69 2161.61 2491.69 2127.56 2491.69 2091.28 2459.38 2065.93 2408.43 2065.93 2383.35 2065.93 2362.24 2072.89 2347.07 2084.41 2346.93 2084.41 2346.8 2084.41 2346.66 2084.41 2346.16 2034.55 2350.88 2008.64 2364.8 2008.64 2374.74 2008.64 2395.36 2020.34 2411.52 2044.57 2415.49 2025.63 2421.46 2009.19 2429.41 1994.71 2382.94 2003.06 2343.92 2003.06 2297.45 1994.71ZM2404.49 2092.22C2402.43 2092.19 2399.93 2092.8 2397.6 2093.95 2389.54 2097.92 2385.82 2107.07 2388.61 2116.09 2389.13 2117.75 2390.26 2119.84 2391.19 2120.84 2391.88 2121.59 2392.97 2122.42 2393.8 2122.83 2394.48 2123.17 2396.12 2123.57 2396.9 2123.59 2398.49 2123.63 2399.92 2123.26 2401.49 2122.43 2404.34 2120.92 2406.23 2118.5 2407.83 2114.29 2408.46 2112.64 2409.65 2108.56 2409.99 2106.93 2411.59 2099.2 2410.67 2094.44 2407.26 2092.77 2406.99 2092.64 2406.7 2092.53 2406.38 2092.45L2406.38 2092.45C2405.81 2092.3 2405.18 2092.23 2404.49 2092.22ZM2423.94 2097.77C2422.92 2097.71 2421.93 2097.97 2420.95 2098.54 2419.42 2099.43 2418.14 2100.83 2416.79 2103.1 2415.41 2105.43 2414.3 2108.12 2413.21 2111.81 2411.77 2116.71 2411.38 2119.7 2411.84 2122.25 2412.46 2125.67 2414.51 2128.55 2417.18 2129.75 2418.73 2130.45 2420.77 2130.58 2422.65 2130.1 2423.97 2129.76 2426.06 2128.62 2427.4 2127.5 2431.46 2124.09 2433.9 2119.6 2434.31 2114.8 2434.81 2108.89 2431.98 2102.42 2427.47 2099.16 2426.62 2098.55 2425.78 2098.14 2424.96 2097.93 2424.62 2097.84 2424.28 2097.79 2423.94 2097.77ZM2376.74 2105.04C2376.26 2105.1 2375.79 2105.3 2375.15 2105.66 2373.36 2106.66 2371.55 2108.86 2369.55 2112.46 2367.19 2116.73 2366.02 2120.91 2366.21 2124.44 2366.38 2127.79 2367.74 2130.79 2370.1 2133.03 2371.3 2134.17 2372.43 2134.92 2374.03 2135.66 2374.18 2135.73 2374.88 2135.94 2375.58 2136.13 2377.66 2136.68 2378.91 2136.6 2380.38 2135.8 2383.65 2134.01 2385.46 2128.54 2385.13 2121.35 2384.82 2114.43 2382.71 2108.31 2379.82 2105.95 2379.38 2105.59 2379.15 2105.48 2378.32 2105.24 2377.68 2105.05 2377.21 2104.98 2376.74 2105.04ZM2440.82 2123.73C2434.71 2123.59 2424.14 2135.46 2423 2143.74 2422.5 2147.31 2423.63 2149.71 2426.43 2151.04 2427.11 2151.36 2429.32 2151.92 2430.18 2151.99 2435.79 2152.39 2440.43 2149.62 2443.13 2144.27 2443.78 2142.99 2444.84 2139.4 2445.08 2137.66 2445.44 2135.03 2445.56 2131.69 2445.36 2129.72 2445 2126.32 2443.77 2124.32 2441.73 2123.84 2441.44 2123.77 2441.14 2123.73 2440.82 2123.73Z" id="path89" fill="#F3AA4B"/></g></svg>