<svg width="402.487" height="252.027" xmlns="http://www.w3.org/2000/svg" xmlns:xlink="http://www.w3.org/1999/xlink" id="svg1" overflow="hidden"><defs id="defs1"></defs><g id="g1" transform="translate(-945.766 521.735)"><path d="M949.901-422.424C949.506-422.306 949.184-422.16 948.869-421.972 946.719-420.728 945.47-417.96 945.826-415.235 947.246-404.395 953.29-379.478 957.648-366.498 968.306-334.757 982.063-307.268 999.703-282.467 1006.58-272.794 1008.84-270.239 1010.85-269.84 1013.94-269.226 1016.82-270.776 1018.24-273.826 1019.46-276.436 1018.82-277.977 1013.52-285.048 999.201-304.172 986.118-327.842 976.681-351.695 971.096-365.812 969.186-371.685 964.487-389.191 960.216-405.13 959.889-406.578 960.317-407.885 960.959-409.834 961.604-410.188 964.848-410.377 968.722-410.603 987.287-409.497 994.635-408.602 1020.41-405.463 1044.21-398.541 1067.01-387.555 1080.51-381.048 1101.16-368.226 1104.72-364.137 1108.86-359.393 1109.46-351.787 1106.31-344.123 1105.76-342.774 1105.44-341.713 1105.62-341.767 1105.79-341.812 1110.51-344.747 1116.08-348.267 1126.49-354.838 1127.53-355.726 1128.18-358.665 1128.69-360.971 1127.96-362.446 1125.08-364.969 1120.51-368.965 1109.19-377.306 1101.5-382.355 1058.62-410.485 1010.11-424.138 957.098-422.994 952.888-422.904 951.077-422.785 949.899-422.423ZM1320.08-521.614C1318.89-521.333 1317.26-520.534 1313.56-518.508 1261.93-490.163 1224.13-448.635 1201.58-395.48 1195.72-381.661 1195.29-379.742 1197.57-377.257 1199.6-375.037 1200.94-374.785 1213.24-374.3 1219.83-374.04 1225.37-373.861 1225.55-373.903 1225.73-373.937 1224.93-374.709 1223.78-375.601 1217.22-380.662 1213.94-387.55 1215.15-393.725 1216.19-399.049 1227.66-420.477 1236.1-432.864 1250.35-453.775 1267.5-471.672 1288.25-487.278 1294.17-491.727 1309.7-501.968 1313.16-503.709 1316.07-505.166 1316.8-505.181 1318.33-503.81 1319.36-502.894 1319.81-501.477 1324.07-485.536 1328.76-468.028 1330.04-461.985 1332.26-446.967 1336.01-421.591 1336.51-394.55 1333.67-370.828 1333.11-366.125 1332.93-362.498 1333.2-361.488 1333.72-359.555 1335.92-357.79 1338.24-357.442 1340.26-357.14 1341.97-357.631 1343.54-358.961 1345.14-360.331 1345.8-363.498 1346.94-375.502 1349.81-405.801 1347.99-436.486 1341.34-469.303 1338.63-482.723 1331.4-507.323 1327.21-517.422 1326.16-519.96 1323.69-521.731 1321.21-521.734 1320.84-521.738 1320.49-521.701 1320.09-521.611ZM981.324-392.539C979.456-391.5 979.633-390.272 982.957-381.18 994.636-349.23 1013.48-314.062 1030.27-292.877L1031.73-291.038 1034.47-294.391C1040.4-301.624 1046.74-307.503 1054.28-312.731 1062.39-318.36 1065.39-322.16 1066.49-328.191 1067.7-334.842 1065.24-341.684 1060.85-343.877 1060.3-344.154 1048.87-347.178 1035.46-350.599 1022.06-354.02 1010.9-356.914 1010.67-357.032 1010.44-357.149 1015.16-357.973 1021.16-358.864 1027.16-359.754 1032.12-360.573 1032.19-360.684 1032.3-360.874 1028.28-361.945 1008.48-367.014 1004.13-368.127 1000.6-369.098 1000.64-369.171 1000.64-369.238 1004.98-369.926 1010.18-370.689 1015.39-371.451 1019.98-372.224 1020.39-372.408 1020.81-372.592 1014.98-374.321 1007.32-376.287 999.721-378.237 993.534-379.866 993.572-379.909 993.572-379.942 996.784-380.438 1000.63-380.99 1004.47-381.543 1007.89-382.122 1008.22-382.278 1008.98-382.632 1001.17-386.358 993.182-389.442 985.05-392.585 982.569-393.233 981.324-392.541ZM1307.81-480.022C1306.39-479.999 1304.56-478.198 1299.09-471.41 1293.72-464.747 1288.81-457.61 1289.65-457.683 1290.02-457.717 1293.26-458.923 1296.87-460.366 1300.47-461.809 1303.47-462.976 1303.52-462.958 1303.52-462.936 1299.03-458.435 1293.42-452.947 1287.77-447.414 1283.59-443.005 1284.05-443.053 1284.5-443.098 1288.86-444.728 1293.75-446.669 1298.63-448.611 1302.7-450.163 1302.77-450.119 1302.89-450.074 1297.89-445.137 1291.75-439.149 1285.61-433.16 1280.32-427.907 1280.01-427.474 1279.51-426.797 1279.73-426.804 1281.55-427.53 1294.82-432.823 1300.37-434.934 1300.16-434.602 1300.02-434.384 1291.8-426.296 1281.89-416.629 1271.99-406.962 1263.61-398.631 1263.27-398.116 1259.55-392.484 1263.16-382.724 1270.77-377.864 1273.91-375.862 1277.21-375.038 1284.54-374.432 1293.61-373.681 1303.3-371.443 1311.49-368.205 1313.22-367.521 1314.74-367.122 1314.86-367.317 1315.28-367.981 1316.51-378.791 1316.96-385.738 1318.59-410.817 1316.73-442.773 1312.08-469.366 1310.41-478.902 1309.95-480.054 1307.81-480.02Z" id="path17-9" fill="#F3AA4B"/></g></svg>